# xmcd CD database file
#
# Track frame offsets:
#	150
#	16665
#	33940
#	49402
#	66350
#	84332
#	104587
#	124610
#	137000
#	150007
#
# Disc length: 2275 seconds
#
# Revision: 0
# Processed by: cddbd v1.5.2PL0 Copyright (c) Steve Scherf et al.
# Submitted via: CDex 1.51
#
DISCID=7408e10a
DTITLE=Jon Chandler - Out West of Laramie
DYEAR=1994
DGENRE=Country
TTITLE0=01-Through the Gap
TTITLE1=02-Out West of Laramie
TTITLE2=03-Wyoming Wind
TTITLE3=04-The Spanish Peaks
TTITLE4=05-Keepers of the Flame
TTITLE5=06-Heartwell
TTITLE6=07-Little Wilber and Miss Lorraine
TTITLE7=08-Cowgirl Attitude
TTITLE8=09-Sidekicks
TTITLE9=10-Hard Lives and Harsh Goodbyes
EXTD=YEAR: 1994
EXTT0=
EXTT1=
EXTT2=
EXTT3=
EXTT4=
EXTT5=
EXTT6=
EXTT7=
EXTT8=
EXTT9=
PLAYORDER=
